<?xml version="1.0" encoding="UTF-8" standalone="no"?>
<svg viewBox="0 0 260 82" width="260" xmlns="http://www.w3.org/2000/svg" xmlns:xlink="http://www.w3.org/1999/xlink" height="82">
 <mask id="a" fill="#fff">
  <path fill-rule="evenodd" d="m0.27508 0.705h24.241v56.689h-24.241z" fill="#fff"/>
 </mask>
 <mask id="b" fill="#fff">
  <path fill-rule="evenodd" d="m0 0.9901h51.572v54.837h-51.572z" fill="#fff"/>
 </mask>
 <mask id="c" fill="#fff">
  <path fill-rule="evenodd" d="m0 84.296h259.33v-81.295h-259.33z" fill="#fff"/>
 </mask>
 <g fill-rule="evenodd" transform="translate(0 -1)">
  <g fill="#1d1d1b">
   <path d="m173.41 26.404s2.719-0.767 4.389-0.066c-0.137-0.344-0.293-0.705-0.535-1.032-0.44-0.58-0.795-0.907-1.508-1.208-1.612-0.662-3.584-0.046-3.584-0.046l-0.221 0.347z"/>
   <path d="m86.854 26.261s2.88-0.402 3.443-0.402c0.615 0 1.134 0.077 1.584 0.245-0.27-0.644-0.581-1.208-0.899-1.518-0.333-0.322 0.096-0.045-1.104-0.702-0.96-0.522-3.362 0-4.292 0.061-0.241 0.066-0.158 0.293-0.158 0.293z"/>
   <path d="m186.57 22.23c-0.227-1.741-0.852-2.374-0.852-2.374l-0.226-0.291 1.043 0.681s2.514 1.969 2.799 5.668 0.941 12.974 1.437 20.243c-0.996 1.461-2.25 3.38-2.25 3.38s-1.668-24.685-1.902-26.831c-0.035-0.326-0.049-0.476-0.049-0.476"/>
   <path d="m126.82 7.7895 1.997 0.016c0.175 0 0.344 0.006 0.513 0.031-0.079-0.988-0.393-1.485-1.026-1.901-0.639-0.511-2.465-0.329-2.766-0.36-0.273 0.181-0.121 0.255-0.121 0.255z"/>
   <path d="m141.29 1.3213-0.305 0.135-13.37 47.205c-0.346 1.23-0.408 3.659 2.736 1.281l13.125-46.228z"/>
   <path d="m134.79 47.722c-0.484 0.785-1.772 3.245-3.006 4.502-2.744 3.252-6.622 6.276-11.25 4.633-0.852-0.375-1.586-1.226-1.586-1.226s-0.641-0.664-0.684-0.688c0.654 0.99 1.998 3.268 4.473 4.233 8.226 2.394 14.134-9.454 14.134-9.454l-1.856-2.006s-0.105 0.006-0.225 0.006"/>
   <path d="m204.68 23.902c-0.279-0.444-1.773-2.324-2.465-3.058-0.014-0.006 0.277 0.555 0.277 0.555s0.418 0.706 0.389 0.691c1.186 2.591 1.235 6.429-1.125 11.02 0 0-0.015 0.024-0.045 0.073-2.515 4.957-16.168 24.961-20.39 28.371-1.006 1.264-14.342 14.358-30.635 17.461-10.201 2.153-19.278 0.778-25.849-1.802-6.711-2.266-12.425-5.987-16.879-10.588 5.111 5.086 11.114 10.187 18.869 12.806 12.556 4.916 34.238 5.485 55.492-14.644 0 0 3.384-3.313 7.65-8.869 0 0 3.68-5.193 7.602-10.816 2.232-3.195 6.177-9.777 6.177-9.777 2.457-4.782 2.51-8.889 0.932-11.423"/>
   <path d="m96.469 45.066s-4.294 5.951-4.941 6.785c-3.349 4.393-6.165 5.049-8.407 4.778-0.466-0.061-1.724-0.459-2.415-1.184 0 0-0.314-0.049-0.348-0.065 1.631 2.454 3.848 3.397 4.754 3.463 2.99 0.227 5.87-1.324 9.066-5.639l3.469-4.81c-0.337-0.945-0.975-2.737-1.178-3.328"/>
   <path d="m103.02 33.027 1.902-2.598c-0.963-3.41-1.216-4.41-1.362-4.87-0.411-1.365-1.649-2.546-1.649-2.546l-2.471-2.767-0.232-0.092 0.39 0.697c0.635 2.343 3.422 12.176 3.422 12.176"/>
   <path d="m14.422 4.6035s2.38-0.104 3.583 0.273c1.125 0.315 1.943 0.963 2.021 2.223-0.709-0.203-1.541-0.27-2.393-0.27l-1.861 0.004-1.492-1.996z"/>
   <path d="m31.894 6.2905-5.638 19.991s1.088 0.148 3.047 0l5.016-17.778s2.146-0.459 4.288 0.866c-1.942-3.932-6.713-3.079-6.713-3.079"/>
   <path d="m27.609 32.085s3.014-0.371 5.701 1.562c-2.515-4.383-8.086-3.782-8.086-3.782l-6.606 22.997s0.984 0.369 2.861 0.534z"/>
   <path d="m0.5161 56.732 25.043 0.01c6.208 0 13.419 0.088 18.663-8.892 1.145-1.953 1.712-5.018 1.712-7.241 0-2.904-1.003-5.284-2.346-7.165-0.389-0.622-1.515-1.966-1.557-2.021 3.314 2.892 6.18 7.125 6.017 12.395-0.064 2.22-0.537 4.314-1.657 6.407-4.395 8.245-13.461 8.736-18.639 8.736h-25.905l-1.541-1.989z"/>
   <path d="m53.382 15.498c-0.425-9.226-8.364-11.257-8.444-11.324 1.134 1.41 6.288 2.876 6.247 9.205-0.011 2.051-0.549 5.125-2.84 7.876-4.579 5.515-11.609 6.604-11.609 6.604s1.466 0.629 3.226 1.945c-0.424 0.106 7.552-2.93 10.377-6.331 2.288-2.755 3.135-5.927 3.043-7.975"/>
   <path d="m78.462 48.022c-1.255 2.006-4.368 4.626-4.368 4.626-6.947 5.576-16.464 6.262-22.172 0.257 0.058 0.09 0.38 1.239 3.713 3.555 6.14 4.266 16.573 3.844 23.876-4.987l0.997-1.399-1.768-1.971z"/>
   <path d="m80.256 21.73s1.377 1.766 1.263 3.988c-0.248 5.241-3.505 8.523-7.357 11.262-5.663 4.024-14.548 3.527-14.548 3.527-0.972 6.552 1.153 11.481 4.984 11.242-2.793-0.402-3.591-5.007-2.994-9.028 0 0 9.438-0.22 15.37-3.829 3.675-2.237 6.218-5.344 6.471-10.583-0.073-2.916-1.047-4.297-2.097-5.597l-1.387-1.509z"/>
   <path d="m59.955 38.268c0.758-0.015 1.681-0.144 2.681-0.408 1.763-7.693 7.236-17.336 9.981-14.149-0.268-1.294-0.745-1.95-1.709-2.165-1.417-0.325-2.884 0.638-3.282 0.997-3.923 3.058-6.834 11.931-7.671 15.725"/>
   <path d="m166.97 48.074c-1.258 2.01-4.602 4.574-4.602 4.574-6.945 5.576-16.457 6.261-22.164 0.257 0.053 0.089 0.377 1.239 3.713 3.555 6.143 4.266 16.569 3.844 23.875-4.988l1.078-1.367z"/>
   <path d="m168.53 21.73s1.375 1.766 1.27 3.988c-0.254 5.241-3.508 8.523-7.366 11.262-5.656 4.024-14.547 3.527-14.547 3.527-0.972 6.552 1.155 11.481 4.985 11.242-2.799-0.402-3.592-5.007-2.994-9.028 0 0 9.437-0.22 15.373-3.829 3.674-2.237 6.218-5.344 6.47-10.583-0.072-2.916-1.052-4.297-2.101-5.597l-1.584-1.589z"/>
   <path d="m148.23 38.268c0.758-0.015 1.684-0.144 2.686-0.408 1.761-7.693 7.23-17.336 9.978-14.149-0.262-1.294-0.75-1.95-1.711-2.165-1.412-0.325-2.877 0.638-3.279 0.997-3.922 3.058-6.832 11.931-7.674 15.725"/>
   <path d="m121.34 23.203c0 0.522-0.552 3.692-3.785 3.933-1.821 0.14-2.853-0.544-4.037-1.087-0.383-0.172-1.313-0.183-2.263 0.274-0.828 0.343-1.812 1.443-2.037 1.757l-5.496 7.453s2.236 8.363 3.52 12.716c1.685 5.328 4.556 14.68 17.57 24.022-7.987-7.11-11.159-13.149-13.975-20.282-1.638-4.153-4.232-15.334-4.232-15.334l4.58-6.33c1.588-1.973 3.03-2.329 4.323-2.059 1.273 0.268 1.675 1.255 4.038 1.089 3.233-0.236 3.801-3.126 3.784-3.938-0.051-2.408-3.039-4.932-3.039-4.932l0.264 0.429s0.77 0.874 0.785 2.289"/>
  </g>
  <path d="m59.617 40.508s8.883 0.503 14.546-3.524c3.857-2.742 7.111-6.024 7.364-11.266-0.004-1.166-0.253-2.174-0.694-3.033-1.374-2.691-4.612-3.886-7.925-3.814-13.167 0.289-19.769 11.903-21.86 18.466-0.889 2.784-3.357 12.366 2.413 16.985 5.887 4.713 16.76 3.771 24.062-5.063l0.949-1.221-1.969-1.359-0.612 0.749c-3.032 3.376-6.646 4.49-9.694 4.478-1.902-0.006-8.287 0.135-6.58-11.398m11.101-18.999c3.517 0.498 1.54 7.725 0.377 9.92-2.638 4.994-8.165 6.785-11.14 6.84 1.049-4.735 5.32-17.379 10.763-16.76" fill="#957b29"/>
  <path d="m70.331 21.863c-4.614 0-8.619 10.654-9.899 16.007 3.032-0.23 7.941-2.095 10.33-6.616 0.95-1.793 2.23-6.398 1.188-8.441-0.277-0.544-0.698-0.848-1.286-0.931-0.104-0.013-0.219-0.019-0.333-0.019zm-10.846 16.79 0.103-0.465c1.006-4.541 5.268-17.721 11.172-17.052 0.846 0.12 1.468 0.569 1.859 1.336 1.256 2.462-0.345 7.531-1.193 9.133-2.672 5.058-8.32 6.981-11.465 7.039zm13.707-19.409-0.276 0.003c-11.677 0.256-18.885 9.967-21.511 18.204-0.879 2.755-3.313 12.092 2.29 16.578 2.191 1.753 5.155 2.719 8.347 2.719 5.595 0 11.132-2.817 15.191-7.728l0.698-0.898-1.357-0.937-0.392 0.481c-2.677 2.982-6.204 4.616-9.94 4.616h-0.125c-1.086-0.003-3.629-0.009-5.368-2.03-1.673-1.943-2.179-5.24-1.504-9.799l0.05-0.339 0.343 0.019c0.005 0.001 0.352 0.02 0.946 0.02 2.548 0 8.951-0.339 13.361-3.476 3.419-2.43 6.949-5.634 7.207-10.977-0.004-1.045-0.224-2.007-0.654-2.843-1.155-2.263-3.886-3.613-7.306-3.613zm-11.15 38.255c-3.362 0-6.493-1.024-8.816-2.884-5.978-4.785-3.453-14.522-2.537-17.392 2.701-8.473 10.138-18.462 22.21-18.727l0.293-0.004c3.708 0 6.689 1.504 7.975 4.022 0.484 0.941 0.731 2.019 0.735 3.203-0.273 5.684-3.956 9.038-7.522 11.573-4.587 3.261-11.175 3.614-13.796 3.614-0.263 0-0.481-0.004-0.643-0.008-0.57 4.159-0.108 7.141 1.377 8.866 1.515 1.761 3.734 1.766 4.801 1.768l0.123 0.376v-0.375c2.491 0 6.138-0.755 9.37-4.354l0.819-1.003 2.581 1.781-1.193 1.534c-4.21 5.094-9.958 8.01-15.777 8.01z" fill="#1d1d1b"/>
  <path d="m147.77 40.508s8.889 0.503 14.555-3.524c3.853-2.742 7.109-6.024 7.361-11.266 0-1.166-0.252-2.174-0.693-3.033-1.377-2.691-4.614-3.886-7.926-3.814-13.174 0.289-19.766 11.903-21.86 18.466-0.893 2.784-3.354 12.366 2.415 16.985 5.88 4.713 16.757 3.771 24.06-5.063l1.059-1.237-2.076-1.343-0.61 0.749c-3.037 3.376-6.652 4.49-9.701 4.478-1.897-0.006-8.287 0.135-6.584-11.398m11.109-18.999c3.516 0.498 1.536 7.725 0.379 9.92-2.64 4.994-8.17 6.785-11.144 6.84 1.049-4.735 5.318-17.379 10.765-16.76" fill="#957b29"/>
  <path d="m158.49 21.863c-4.616 0-8.621 10.654-9.901 16.007 3.032-0.23 7.944-2.095 10.335-6.616 0.947-1.799 2.223-6.411 1.182-8.445-0.277-0.541-0.696-0.845-1.282-0.927-0.105-0.013-0.22-0.019-0.334-0.019zm-10.849 16.79 0.104-0.465c1.005-4.542 5.301-17.738 11.174-17.052 0.844 0.12 1.466 0.567 1.856 1.331 1.255 2.453-0.341 7.53-1.187 9.137-2.675 5.059-8.326 6.982-11.47 7.04zm13.707-19.409-0.276 0.003c-11.672 0.256-18.882 9.967-21.51 18.204-0.628 1.959-3.471 11.963 2.291 16.578 2.189 1.753 5.152 2.719 8.344 2.719 5.596 0 11.133-2.817 15.193-7.728l0.784-0.916-1.433-0.927-0.397 0.488c-2.682 2.983-6.21 4.617-9.947 4.617h-0.126c-1.085-0.003-3.627-0.009-5.367-2.031-1.674-1.944-2.182-5.24-1.508-9.798l0.05-0.339 0.343 0.019c0.006 0.001 0.352 0.02 0.947 0.02 2.549 0 8.956-0.339 13.368-3.476 3.418-2.432 6.948-5.637 7.204-10.977-0.001-1.039-0.219-2.002-0.652-2.843-1.158-2.263-3.89-3.613-7.308-3.613zm-11.151 38.255c-3.362 0-6.492-1.024-8.813-2.884-5.993-4.799-3.457-14.526-2.537-17.393 2.704-8.472 10.141-18.462 22.209-18.726l0.292-0.004c3.706 0 6.688 1.504 7.976 4.022 0.487 0.948 0.735 2.026 0.735 3.204-0.272 5.679-3.954 9.035-7.519 11.572-4.589 3.261-11.183 3.614-13.804 3.614-0.265 0-0.481-0.004-0.644-0.008-0.569 4.158-0.105 7.139 1.38 8.865 1.518 1.762 3.736 1.767 4.801 1.769l0.124 0.376v-0.375c2.49 0 6.139-0.755 9.376-4.354l0.81-0.996 2.72 1.759-1.338 1.563c-4.199 5.08-9.948 7.996-15.768 7.996z" fill="#1d1d1b"/>
  <path d="m128.99 10.492c1.059-3.963-0.478-4.904-2.174-4.904h-1.298l0.519-1.826 14.955-2.302-13.378 47.203c-0.347 1.23-0.317 2.975 1.288 2.012 1.537-0.876 4.184-4.265 4.184-4.265l1.688 1.288s-5.784 11.815-14.007 9.252c-3.932-1.625-3.268-6.539-2.653-8.687z" fill="#957b29"/>
  <path transform="translate(117 .2955)" mask="url(#a)" d="m9.0191 4.9174h0.801c1.044 0 1.823 0.326 2.317 0.969 0.688 0.895 0.761 2.378 0.219 4.407l-10.878 37.778c-0.309 1.079-1.644 6.551 2.437 8.237 0.706 0.218 1.456 0.335 2.196 0.335 6.001 0 10.362-7.588 11.188-9.134l-1.145-0.873c-0.688 0.854-2.733 3.312-4.062 4.07-0.763 0.457-1.384 0.423-1.739-0.045-0.415-0.549-0.322-1.597-0.097-2.395l13.219-46.642-14.139 2.177zm-2.908 52.477c-0.816 0-1.641-0.128-2.452-0.381-4.702-1.941-3.243-7.962-2.902-9.15l10.876-37.771c0.476-1.784 0.447-3.048-0.092-3.749-0.344-0.448-0.923-0.675-1.721-0.675h-1.795l0.72-2.536 15.771-2.428-13.537 47.766c-0.208 0.736-0.219 1.483-0.026 1.737 0.075 0.101 0.179 0.199 0.759-0.15 1.463-0.833 4.056-4.14 4.081-4.174l0.229-0.293 2.228 1.701-0.135 0.276c-0.196 0.402-4.892 9.827-12.004 9.827z" fill="#1d1d1b"/>
  <path d="m195.58 42.888c2.236-3.197 6.176-9.778 6.176-9.778 2.451-4.779 2.303-8.638 1-11.263-0.469-0.954-2.5-3.362-5.446-2.025-0.474 0.221-3.044 2.166-1.798 5.156 0.699 1.684 1.779 2.301 2.789 3.114 0.58 0.454 2.246 2.524 0.959 5.343 0 0-3.41 5.858-5.612 8.674-2.535 3.557-5.132 7.436-5.132 7.436s-1.668-24.693-1.901-26.836c-0.244-2.205-0.799-2.954-1.48-3.224l-12.461 2.632-0.518 1.957s3.492-1.145 5.11 1.236c0.982 1.441 1.017 3.279 1.017 3.279l1.166 24.843s0.422 5.227-0.484 7.216c-0.832 1.318-1.617 1.98-1.617 1.98-6.582 5.737-12.297 9.461-18.059 11.723-14.303 4.98-27.511 2.5-33.292-1.391-10.589-6.043-16.411-17.287-18.757-24.711-1.288-4.353-3.52-12.716-3.52-12.716l5.464-7.423c1.589-1.975 3.66-2.362 4.332-2.057 1.18 0.539 2.214 1.223 4.033 1.088 3.233-0.246 3.807-3.416 3.785-3.938-0.138-3.23-3.205-3.957-4.267-3.944-2.926 0.029-5.239 1.447-8.391 5.796l-5.654 7.975s-3.09-10.894-3.268-11.662c-0.258-1.135-0.774-1.558-1.449-1.772l-12.152 2.419-0.589 1.955s2.175-0.326 2.746-0.326c1.166 0 1.971 0.271 2.67 0.945 0.694 0.668 1.357 2.552 1.611 3.862l3.189 14.118-4.075 5.358c-1.607 1.96-3.679 2.326-4.346 2.012-1.177-0.552-2.206-1.245-4.027-1.126-3.234 0.212-3.838 3.374-3.822 3.896 0.104 3.234 3.162 3.988 4.222 3.988 2.93 0 5.255-1.393 8.458-5.708l4.282-5.947s1.622 4.796 3.268 8.94c4.05 10.263 12.944 19.129 25.097 23.234 12.556 4.916 34.243 5.485 55.489-14.641 0 0 3.389-3.312 7.656-8.87 0 0 3.674-5.195 7.598-10.817" fill="#957b29"/>
  <path d="m96.595 44.23 0.234 0.692c0.016 0.048 1.638 4.834 3.262 8.922 4.229 10.718 13.293 19.107 24.867 23.016 4.76 1.864 10.171 2.845 15.665 2.845 9.614 0.001 24.261-3.018 39.447-17.402 0.029-0.029 3.416-3.357 7.616-8.826-0.001 0 3.669-5.189 7.588-10.804 2.203-3.15 6.122-9.691 6.161-9.756 2.092-4.081 2.446-7.96 0.986-10.902-0.283-0.575-1.51-2.212-3.39-2.212-0.51 0-1.036 0.121-1.564 0.361-0.026 0.012-2.83 1.737-1.607 4.67 0.551 1.33 1.35 1.942 2.196 2.59 0.161 0.123 0.322 0.247 0.481 0.375 0.706 0.553 2.427 2.811 1.066 5.792-0.052 0.092-3.466 5.946-5.657 8.749-2.494 3.499-5.091 7.375-5.117 7.414l-0.613 0.914-0.074-1.098c-0.017-0.247-1.67-24.71-1.899-26.82-0.231-2.085-0.719-2.659-1.148-2.872l-12.116 2.56-0.296 1.12c0.355-0.069 0.831-0.135 1.359-0.135 1.569 0 2.791 0.58 3.535 1.677 1.034 1.515 1.081 3.402 1.083 3.482l1.165 24.833c0.017 0.205 0.418 5.336-0.517 7.389-0.877 1.396-1.683 2.083-1.717 2.112-6.629 5.777-12.402 9.523-18.163 11.785-5.355 1.865-10.834 2.808-16.296 2.808-6.917 0.001-13.4-1.583-17.343-4.237-12.489-7.126-17.629-20.868-18.905-24.909-1.277-4.315-3.503-12.65-3.526-12.734l-0.046-0.174 5.571-7.568c1.37-1.703 3.06-2.303 4.094-2.303 0.276 0 0.51 0.043 0.695 0.126 0.184 0.084 0.363 0.172 0.543 0.259 0.963 0.467 1.871 0.907 3.307 0.798 3.199-0.244 3.439-3.515 3.438-3.548-0.125-2.926-2.9-3.584-3.863-3.584-2.964 0.029-5.157 1.558-8.116 5.641l-6.105 8.611-0.214-0.755c-0.126-0.445-3.095-10.911-3.273-11.678-0.215-0.948-0.598-1.287-1.108-1.47l-11.832 2.356-0.354 1.174c0.697-0.098 1.812-0.245 2.216-0.245 1.291 0 2.168 0.314 2.931 1.049 0.835 0.805 1.497 2.918 1.719 4.062l3.225 14.277-4.181 5.498c-1.369 1.67-3.053 2.259-4.08 2.26-0.29 0-0.534-0.046-0.724-0.136-0.181-0.084-0.357-0.172-0.535-0.26-0.962-0.477-1.872-0.928-3.308-0.831-3.191 0.209-3.472 3.478-3.471 3.51 0.095 2.957 2.879 3.623 3.847 3.623 2.939 0 5.15-1.506 8.156-5.556zm44.029 36.227h-0.001c-5.587-0.001-11.092-1-15.922-2.891-11.768-3.975-20.999-12.523-25.309-23.446-1.265-3.184-2.528-6.789-3.039-8.269l-3.857 5.357c-3.132 4.221-5.589 5.864-8.762 5.864-1.157 0-4.484-0.799-4.598-4.35-0.019-0.623 0.671-4.055 4.173-4.284 1.646-0.1 2.688 0.41 3.691 0.908 0.172 0.086 0.345 0.171 0.52 0.254 0.041 0.019 0.162 0.063 0.405 0.063 0.695 0 2.213-0.416 3.491-1.974l3.961-5.208-3.151-13.947c-0.256-1.322-0.903-3.095-1.505-3.675-0.619-0.596-1.317-0.839-2.41-0.839-0.445 0-2.092 0.232-2.69 0.322l-0.586 0.088 0.825-2.739 12.467-2.482 0.092 0.03c0.922 0.291 1.447 0.923 1.702 2.047 0.147 0.631 2.347 8.406 3.05 10.886l5.2-7.334c3.083-4.254 5.52-5.922 8.694-5.954 1.181-0.001 4.496 0.79 4.645 4.303 0.027 0.622-0.621 4.062-4.132 4.329-1.65 0.124-2.686-0.384-3.691-0.871-0.174-0.085-0.348-0.169-0.526-0.25-0.038-0.018-0.154-0.059-0.384-0.059-0.699 0-2.223 0.423-3.5 2.009l-5.346 7.265c0.327 1.224 2.301 8.58 3.471 12.533 1.254 3.969 6.306 17.485 18.582 24.491 3.848 2.588 10.175 4.124 16.948 4.124 5.378 0 10.773-0.929 16.035-2.761 5.664-2.225 11.368-5.929 17.935-11.652 0.012-0.01 0.761-0.652 1.547-1.898 0.831-1.831 0.431-6.933 0.427-6.984l-1.167-24.857c-0.001-0.027-0.047-1.757-0.953-3.084-0.607-0.895-1.588-1.348-2.914-1.348-0.968 0-1.76 0.254-1.768 0.257l-0.656 0.213 0.753-2.846 12.798-2.703 0.106 0.041c0.958 0.38 1.486 1.469 1.715 3.532 0.206 1.894 1.499 20.901 1.828 25.759 0.922-1.362 2.748-4.04 4.526-6.536 2.17-2.777 5.559-8.586 5.593-8.645 1.143-2.509-0.278-4.397-0.866-4.858-0.16-0.128-0.316-0.248-0.472-0.368-0.887-0.68-1.804-1.383-2.433-2.897-1.358-3.26 1.39-5.363 1.987-5.642 0.629-0.285 1.26-0.43 1.878-0.43 2.273 0 3.704 1.899 4.063 2.631 1.568 3.16 1.213 7.28-1.003 11.599-0.051 0.088-3.983 6.652-6.202 9.823-3.924 5.622-7.599 10.818-7.599 10.818-4.243 5.527-7.666 8.889-7.7 8.922-15.368 14.557-30.216 17.613-39.966 17.613z" fill="#1d1d1b"/>
  <path d="m31.896 6.2905s7.521-1.332 7.521 7.122c0 2.656-1.067 5.092-1.936 6.919-2.858 7.085-11.225 5.957-11.225 5.957zm-6.672 23.581s9.276-1.007 9.288 8.993c0.003 1.788-0.384 3.984-1.365 6.517-4.353 11.27-14.529 7.491-14.529 7.491zm0.537 26.876c6.208 0 13.22 0.084 18.461-8.887 1.149-1.961 1.712-5.022 1.712-7.245 0-8.812-9.194-12.757-9.194-12.757s7.026-1.085 11.605-6.6c2.291-2.754 2.914-5.828 2.846-7.878-0.396-11.244-14.2-10.715-16.231-10.715h-19.97l-0.58 1.95h1.233c2.61 0 5.067 0.625 4.226 3.883-0.048 0.19-11.987 41.91-11.987 41.91-0.579 1.589-1.266 2.443-2.355 3.104-1.364 0.835-4.443 1.282-4.443 1.282l-0.581 1.953z" fill="#957b29"/>
  <path transform="translate(0 1.2955)" mask="url(#b)" d="m26.741 24.659c0.203 0.013 0.469 0.024 0.785 0.024 2.186 0 7.5-0.564 9.607-5.788 0.995-2.094 1.908-4.348 1.908-6.778 0-5.937-3.795-6.823-6.057-6.823-0.338 0-0.614 0.022-0.793 0.041zm0.785 0.775c-0.797 0-1.299-0.066-1.32-0.069l-0.428-0.058 5.821-20.641 0.232-0.041c0.019-0.003 0.472-0.082 1.153-0.082 2.048 0 6.808 0.738 6.808 7.574 0 2.579-0.947 4.927-1.971 7.08-2.27 5.628-7.956 6.237-10.295 6.237zm-8.447 25.896c0.577 0.169 1.853 0.48 3.424 0.48 3.311 0 7.785-1.363 10.294-7.859 0.892-2.304 1.343-4.451 1.34-6.382-0.009-7.804-5.75-8.646-8.219-8.646-0.162 0-0.3 0.004-0.405 0.009zm3.424 1.231c-2.286 0-3.946-0.607-4.016-0.632l-0.326-0.122 6.772-23.577 0.251-0.028s0.276-0.03 0.734-0.03c2.102 0 8.96 0.677 8.97 9.396 0.003 2.025-0.464 4.263-1.391 6.653-2.661 6.893-7.447 8.34-10.994 8.34zm-21.496 2.515h25.098c5.957 0 12.71 0 17.793-8.701 1.141-1.948 1.661-5.023 1.661-7.055 0-8.466-8.878-12.373-8.967-12.411l-1.202-0.516 1.292-0.201c0.069-0.011 6.944-1.134 11.374-6.469 2.689-3.232 2.792-6.653 2.76-7.625-0.317-9.011-9.589-10.357-15.087-10.357l-0.768 0.004h-19.691l-0.357 1.2h0.73c2.173 0 3.517 0.429 4.233 1.353 0.563 0.727 0.683 1.736 0.357 2.999-0.048 0.189-10.767 37.648-11.989 41.919-0.597 1.64-1.325 2.595-2.522 3.322-1.201 0.735-3.581 1.17-4.346 1.295zm25.098 0.751h-26.105l0.792-2.665 0.238-0.035c0.03-0.004 3.019-0.446 4.301-1.23 1.052-0.639 1.668-1.456 2.199-2.913 0.11-0.39 11.872-41.491 11.976-41.876 0.264-1.025 0.189-1.816-0.224-2.35-0.554-0.715-1.744-1.062-3.639-1.062h-1.736l0.803-2.702 21.019-0.004c5.769 0 15.498 1.44 15.838 11.082 0.044 1.332-0.153 4.789-2.933 8.131-3.601 4.336-8.606 5.976-10.774 6.509 2.406 1.333 8.45 5.399 8.45 12.608 0 2.202-0.546 5.355-1.763 7.435-5.301 9.072-12.588 9.072-18.442 9.072z" fill="#1d1d1b"/>
  <path mask="url(#c)" d="m198.36 58.898h4.354v-5.145h-4.354z" fill="#947a28"/>
  <path mask="url(#c)" d="m198.61 58.648h3.854v-4.645h-3.854zm-0.501 0.5h4.854v-5.645h-4.854z" fill="#020203"/>
  <path mask="url(#c)" d="m214.55 47.553c0-1.715-0.328-3.562-2.043-3.562-2.244 0-2.607 1.979-2.607 6.068 0 4.386 0.396 6.201 2.441 6.201 1.518 0 2.209-1.288 2.209-4.156h4.354c0 4.65-1.946 7.255-6.76 7.255-4.551 0-6.795-2.209-6.795-9.333 0-7.289 3.002-9.333 7.189-9.333 4.19 0 6.366 2.672 6.366 6.86z" fill="#947a28"/>
  <path mask="url(#c)" d="m212.54 40.942c-4.799 0-6.939 2.801-6.939 9.083 0 7.539 2.616 9.084 6.544 9.084 4.364 0 6.437-2.148 6.508-6.755h-3.853c-0.024 1.855-0.349 4.155-2.457 4.155-2.289 0-2.692-2.08-2.692-6.45 0-3.7 0.205-6.319 2.858-6.319 1.47 0 2.24 1.199 2.29 3.562h3.853c-0.087-4.046-2.303-6.36-6.112-6.36m-0.395 18.667c-5.003 0-7.044-2.777-7.044-9.584 0-6.538 2.364-9.583 7.439-9.583 4.204 0 6.615 2.592 6.615 7.11v0.25h-4.853v-0.25c0-2.228-0.587-3.312-1.793-3.312-1.829 0-2.358 1.306-2.358 5.819 0 4.615 0.492 5.95 2.192 5.95 0.912 0 1.959-0.444 1.959-3.905v-0.25h4.853v0.25c0 5.049-2.293 7.505-7.01 7.505" fill="#020203"/>
  <path mask="url(#c)" d="m227.68 56.259c1.848 0 2.441-1.814 2.441-6.233s-0.593-6.233-2.441-6.233c-2.24 0-2.439 2.605-2.439 6.233s0.199 6.233 2.439 6.233m0-15.567c5.477-0.099 6.992 3.167 6.992 9.334 0 6.069-1.781 9.333-6.992 9.333-5.473 0.099-6.99-3.166-6.99-9.333 0-6.069 1.779-9.334 6.99-9.334" fill="#947a28"/>
  <path mask="url(#c)" d="m227.68 44.043c-1.862 0-2.189 1.929-2.189 5.983s0.327 5.983 2.189 5.983c1.598 0 2.191-1.621 2.191-5.983 0-4.361-0.593-5.983-2.191-5.983zm0 12.466c-2.491 0-2.689-2.81-2.689-6.483s0.198-6.483 2.689-6.483c2.241 0 2.691 2.48 2.691 6.483 0 4.002-0.45 6.483-2.691 6.483zm0.238-15.569-0.233 0.002c-4.73 0-6.745 2.717-6.745 9.084 0 6.538 1.822 9.085 6.5 9.085l0.235-0.002c4.731 0 6.747-2.716 6.747-9.083 0-6.538-1.823-9.086-6.504-9.086zm-0.478 18.671c-6.153 0-7-4.607-7-9.585 0-6.628 2.233-9.584 7.24-9.584l0.238-0.002c6.156 0 7.004 4.607 7.004 9.586 0 6.627-2.233 9.583-7.242 9.583z" fill="#020203"/>
  <path mask="url(#c)" d="m237.11 41.154h4.354v1.813h0.066c1.154-1.615 2.572-2.275 4.486-2.275 2.076 0 3.594 1.023 4.088 2.837h0.067c0.693-1.881 2.341-2.837 4.484-2.837 3.002 0 4.422 1.88 4.422 5.31v12.896h-4.553v-12.401c0-1.485-0.494-2.309-1.781-2.309-1.449 0-2.373 0.99-2.373 3.034v11.676h-4.553v-12.401c0-1.485-0.494-2.309-1.781-2.309-1.449 0-2.375 0.99-2.375 3.034v11.676h-4.551z" fill="#947a28"/>
  <path mask="url(#c)" d="m254.77 58.648h4.053v-12.646c0-3.357-1.404-5.06-4.172-5.06-2.105 0-3.614 0.95-4.25 2.673l-0.061 0.164h-0.431l-0.05-0.184c-0.459-1.686-1.861-2.653-3.847-2.653-1.889 0-3.21 0.67-4.283 2.171l-0.074 0.105h-0.446v-1.814h-3.853v17.244h4.051v-11.425c0-2.087 0.957-3.284 2.625-3.284 1.367 0 2.031 0.836 2.031 2.559v12.15h4.053v-11.425c0-2.087 0.956-3.284 2.623-3.284 1.367 0 2.031 0.836 2.031 2.559zm4.553 0.5h-5.053v-12.65c0-1.444-0.458-2.059-1.531-2.059-1.755 0-2.123 1.514-2.123 2.784v11.925h-5.053v-12.65c0-1.444-0.458-2.059-1.531-2.059-1.756 0-2.125 1.514-2.125 2.784v11.925h-5.051v-18.244h4.853v1.421c1.106-1.297 2.457-1.883 4.303-1.883 1.978 0 3.487 0.917 4.145 2.482 0.806-1.606 2.382-2.482 4.494-2.482 3.057 0 4.672 1.923 4.672 5.56z" fill="#020203"/>
 </g>
</svg>
