<?xml version="1.0" encoding="UTF-8" standalone="no"?>
<!-- Generator: Adobe Illustrator 17.1.0, SVG Export Plug-In . SVG Version: 6.00 Build 0)  -->
<!DOCTYPE svg  PUBLIC '-//W3C//DTD SVG 1.1//EN'  'http://www.w3.org/Graphics/SVG/1.1/DTD/svg11.dtd'>
<svg id="Calque_1" xmlns="http://www.w3.org/2000/svg" xml:space="preserve" viewBox="0 0 196.4 133.6" version="1.1" y="0px" x="0px" xmlns:xlink="http://www.w3.org/1999/xlink" enable-background="new 0 0 196.4 133.6">
<g fill="#1C1C25">
	<path d="m34.7 61.9c0-1.1-0.2-1.2-1.4-1.2h-23.4c-0.8 0-1.2 0.4-1.2 1.2v4.4c0 0.8 0.4 1.2 1.2 1.2h16.9v43c0 7.5-3.2 11.2-9.7 11.2-7.5 0-9.8-5.7-9.8-12.1v-0.8c0-0.8-0.3-1-0.8-1h-5.6c-0.9 0-0.9 0.6-0.9 1.7 0 9 3.7 18.5 17 18.5 11.1 0 17.8-6.3 17.8-17.7v-48.4z"/>
	<path d="m57 120.5h-6.2l3.7-13.4h19.8l3.8 13.4h-6c-0.8 0-1.2 0.4-1.2 1.2v3.9c0 0.8 0.4 1.2 1.2 1.2h19.5c0.8 0 1.2-0.4 1.2-1.2v-3.9c0-0.8-0.4-1.2-1.2-1.2h-4.8l-18-58.7c-0.4-1.1-0.7-1.1-1.4-1.1h-5.7c-1.1 0-1.2 0.1-1.4 1.1l-17.9 58.8h-4.7c-0.8 0-1.2 0.4-1.2 1.2v3.9c0 0.8 0.4 1.2 1.2 1.2h19.3c0.8 0 1.2-0.4 1.2-1.2v-3.9c-0.1-0.9-0.4-1.3-1.2-1.3m5.2-41.5c0.7-2.6 1.6-6.9 2-9.2h0.2c0.5 2.7 1.4 6.2 2.2 9.2l5.8 21.3h-16.1l5.9-21.3z"/>
	<path d="m138.6 126.7c-2.5-1.6-6.7-4.7-7.9-6.1 1.6-2.4 6.6-9 6.6-26.9 0-21.4-6.4-34.4-21.2-34.4-15.8 0-22.3 13.9-22.3 34.5 0 21.2 6.5 34.2 21.2 34.2 3.5 0 7-1 10.1-2.5 1.3 1.5 7.9 7.9 10 7.9 0.3 0 0.6-0.1 0.9-0.3l5.1-3.5c0.2-0.2 0.4-0.4 0.4-0.9 0-0.4-0.8-0.6-2.9-2m-23.2-5c-10.2 0-13-11.4-13-28.2 0-15.9 2.3-27.7 13.2-27.7 10.1 0 12.9 11.4 12.9 28.2 0 15.9-2.4 27.7-13.1 27.7"/>
	<path d="m146.1 61.9v4c0 0.8 0.4 1.2 1.2 1.2h6.1v53.6h-6.1c-0.8 0-1.2 0.4-1.2 1.2v3.9c0 0.8 0.4 1.2 1.2 1.2h20.1c0.8 0 1.2-0.4 1.2-1.2v-3.9c0-0.8-0.4-1.2-1.2-1.2h-6.1v-25.7h0.2l20 25.5h-4.6c-0.8 0-1.2 0.4-1.2 1.2v3.9c0 0.8 0.4 1.2 1.2 1.2h18.4c0.8 0 1.2-0.4 1.2-1.2v-3.9c0-0.8-0.4-1.2-1.2-1.2h-4.7l-21.4-26.5 21-27h4.3c0.8 0 1.2-0.4 1.2-1.2v-4c0-0.8-0.4-1.2-1.2-1.2h-17.5c-0.8 0-1.2 0.4-1.2 1.2v4c0 0.8 0.4 1.2 1.2 1.2h4.7l-20.3 26.9h-0.2v-26.9h6.1c0.8 0 1.2-0.4 1.2-1.2v-4c0-0.8-0.4-1.2-1.2-1.2h-20.1c-0.7 0.1-1.1 0.5-1.1 1.3"/>
</g>
<g fill="#1C1C25">
	<path d="m137 25.7c0-1.8-1.5-3.4-3.4-3.4-1.8 0-3.3 1.5-3.3 3.4 0 1.8 1.5 3.4 3.3 3.4 1.9-0.1 3.4-1.6 3.4-3.4"/>
	<path d="m62.7 29c1.8 0 3.4-1.5 3.4-3.4 0-1.8-1.5-3.4-3.4-3.4s-3.4 1.5-3.4 3.4c0.1 1.9 1.6 3.4 3.4 3.4"/>
	<path d="m86.3 43.4c4.9 0 8.6-3.9 10.6-7.6-0.4 4.2-1.3 9.1-3.4 13.4h8.8s-2-5.6-3.1-13.5c2 3.6 5.9 7.6 10.9 7.6 6.2 0 10.6-5.9 10.3-11.2-0.4-5.3-0.9-10.1-10.6-17.6-9.8-7.3-11.6-14.5-11.6-14.5s-1.8 7.2-11.5 14.7c-9.8 7.5-10.3 12.2-10.7 17.6-0.4 5.3 4 11.1 10.3 11.1m11.4-28.5c2.2 5.7 6.2 8.3 6.2 8.3-4.3 3.2-5.7 8.3-5.7 8.3-1.8-4.8-6.3-8-6.3-8 4.2-3.5 5.8-8.6 5.8-8.6"/>
</g>
</svg>
