<?xml version="1.0" encoding="utf-8"?>
<!-- Generator: Adobe Illustrator 17.1.0, SVG Export Plug-In . SVG Version: 6.00 Build 0)  -->
<!DOCTYPE svg PUBLIC "-//W3C//DTD SVG 1.1//EN" "http://www.w3.org/Graphics/SVG/1.1/DTD/svg11.dtd">
<svg version="1.1" id="Calque_1" xmlns="http://www.w3.org/2000/svg" xmlns:xlink="http://www.w3.org/1999/xlink" x="0px" y="0px"
	 viewBox="0 0 196.4 133.6" enable-background="new 0 0 196.4 133.6" xml:space="preserve">
<g>
	<path fill="#1C1C25" d="M34.7,61.9c0-1.1-0.2-1.2-1.4-1.2H9.9c-0.8,0-1.2,0.4-1.2,1.2v4.4c0,0.8,0.4,1.2,1.2,1.2h16.9v43
		c0,7.5-3.2,11.2-9.7,11.2c-7.5,0-9.8-5.7-9.8-12.1v-0.8c0-0.8-0.3-1-0.8-1H0.9c-0.9,0-0.9,0.6-0.9,1.7c0,9,3.7,18.5,17,18.5
		c11.1,0,17.8-6.3,17.8-17.7V61.9z"/>
	<path fill="#1C1C25" d="M57,120.5h-6.2l3.7-13.4h19.8l3.8,13.4h-6c-0.8,0-1.2,0.4-1.2,1.2v3.9c0,0.8,0.4,1.2,1.2,1.2h19.5
		c0.8,0,1.2-0.4,1.2-1.2v-3.9c0-0.8-0.4-1.2-1.2-1.2h-4.8L68.8,61.8c-0.4-1.1-0.7-1.1-1.4-1.1h-5.7c-1.1,0-1.2,0.1-1.4,1.1
		l-17.9,58.8h-4.7c-0.8,0-1.2,0.4-1.2,1.2v3.9c0,0.8,0.4,1.2,1.2,1.2H57c0.8,0,1.2-0.4,1.2-1.2v-3.9C58.1,120.9,57.8,120.5,57,120.5
		 M62.2,79c0.7-2.6,1.6-6.9,2-9.2h0.2c0.5,2.7,1.4,6.2,2.2,9.2l5.8,21.3H56.3L62.2,79z"/>
	<path fill="#1C1C25" d="M138.6,126.7c-2.5-1.6-6.7-4.7-7.9-6.1c1.6-2.4,6.6-9,6.6-26.9c0-21.4-6.4-34.4-21.2-34.4
		c-15.8,0-22.3,13.9-22.3,34.5c0,21.2,6.5,34.2,21.2,34.2c3.5,0,7-1,10.1-2.5c1.3,1.5,7.9,7.9,10,7.9c0.3,0,0.6-0.1,0.9-0.3l5.1-3.5
		c0.2-0.2,0.4-0.4,0.4-0.9C141.5,128.3,140.7,128.1,138.6,126.7 M115.4,121.7c-10.2,0-13-11.4-13-28.2c0-15.9,2.3-27.7,13.2-27.7
		c10.1,0,12.9,11.4,12.9,28.2C128.5,109.9,126.1,121.7,115.4,121.7"/>
	<path fill="#1C1C25" d="M146.1,61.9v4c0,0.8,0.4,1.2,1.2,1.2h6.1v53.6h-6.1c-0.8,0-1.2,0.4-1.2,1.2v3.9c0,0.8,0.4,1.2,1.2,1.2h20.1
		c0.8,0,1.2-0.4,1.2-1.2v-3.9c0-0.8-0.4-1.2-1.2-1.2h-6.1V95h0.2l20,25.5h-4.6c-0.8,0-1.2,0.4-1.2,1.2v3.9c0,0.8,0.4,1.2,1.2,1.2
		h18.4c0.8,0,1.2-0.4,1.2-1.2v-3.9c0-0.8-0.4-1.2-1.2-1.2h-4.7L169.2,94l21-27h4.3c0.8,0,1.2-0.4,1.2-1.2v-4c0-0.8-0.4-1.2-1.2-1.2
		H177c-0.8,0-1.2,0.4-1.2,1.2v4c0,0.8,0.4,1.2,1.2,1.2h4.7l-20.3,26.9h-0.2V67h6.1c0.8,0,1.2-0.4,1.2-1.2v-4c0-0.8-0.4-1.2-1.2-1.2
		h-20.1C146.5,60.7,146.1,61.1,146.1,61.9"/>
</g>
<g>
	<path fill="#1C1C25" d="M137,25.7c0-1.8-1.5-3.4-3.4-3.4c-1.8,0-3.3,1.5-3.3,3.4c0,1.8,1.5,3.4,3.3,3.4C135.5,29,137,27.5,137,25.7
		"/>
	<path fill="#1C1C25" d="M62.7,29c1.8,0,3.4-1.5,3.4-3.4c0-1.8-1.5-3.4-3.4-3.4c-1.9,0-3.4,1.5-3.4,3.4C59.4,27.5,60.9,29,62.7,29"
		/>
	<path fill="#1C1C25" d="M86.3,43.4c4.9,0,8.6-3.9,10.6-7.6c-0.4,4.2-1.3,9.1-3.4,13.4h8.8c0,0-2-5.6-3.1-13.5
		c2,3.6,5.9,7.6,10.9,7.6c6.2,0,10.6-5.9,10.3-11.2c-0.4-5.3-0.9-10.1-10.6-17.6C100,7.2,98.2,0,98.2,0s-1.8,7.2-11.5,14.7
		C76.9,22.2,76.4,26.9,76,32.3C75.6,37.6,80,43.4,86.3,43.4 M97.7,14.9c2.2,5.7,6.2,8.3,6.2,8.3c-4.3,3.2-5.7,8.3-5.7,8.3
		c-1.8-4.8-6.3-8-6.3-8C96.1,20,97.7,14.9,97.7,14.9"/>
</g>
</svg>
